<mxfile host="app.diagrams.net" modified="2023-08-10T09:01:03.377Z" agent="Mozilla/5.0 (Windows NT 10.0; Win64; x64; rv:109.0) Gecko/20100101 Firefox/116.0" version="21.6.6" etag="2gTBpzGpgSkBeN-Gty0V" type="github">
  <diagram name="Sivu-1" id="uCGVtJElo_uXsa1LSWyi">
    <mxGraphModel>
      <root>
        <mxCell id="0" />
        <mxCell id="1" parent="0" />
      </root>
    </mxGraphModel>
  </diagram>
</mxfile>
